<svg width="57" height="39" viewBox="0 0 57 39" fill="none" xmlns="http://www.w3.org/2000/svg">
<g clip-path="url(#clip0_1584_42)">
<path d="M0 0.677246H8.65697V23.1338C8.65697 26.6885 10.3385 28.8044 11.6679 29.7141C10.2599 30.9237 5.95701 31.9817 2.75122 29.4109C0.857833 27.8947 0.0170842 25.4048 0.0170842 23.0597V0.677246H0Z" fill="#FF00BF"/>
<path d="M54.0947 19.333V16.9745H56.7332V8.69267H53.835C53.2532 6.20836 51.8301 3.9936 49.8005 2.41341C47.7708 0.833227 45.2556 -0.0180847 42.6694 -0.000212512C36.3638 -0.000212512 31.251 4.93923 31.251 11.0377V30.3709C32.2631 30.5307 33.298 30.4807 34.2895 30.2243C35.281 29.9679 36.2074 29.5107 37.0098 28.8817C38.8997 27.3655 39.7439 24.8756 39.7439 22.5305V21.8196H44.0809V13.5546H39.761V11.0546C39.761 10.295 40.0671 9.56655 40.6119 9.02946C41.1567 8.49236 41.8956 8.19063 42.666 8.19063C43.4365 8.19063 44.1754 8.49236 44.7202 9.02946C45.265 9.56655 45.571 10.295 45.571 11.0546V19.3499C45.571 25.445 50.6975 30.3878 56.9963 30.3878V22.1363C56.2343 22.1435 55.5005 21.8524 54.9559 21.3268C54.4113 20.8013 54.1003 20.0843 54.0913 19.333" fill="#FF00BF"/>
<path d="M21.3125 8.69287V20.8427C21.3125 21.1885 21.1732 21.5202 20.9251 21.7647C20.6771 22.0092 20.3407 22.1466 19.9899 22.1466C19.6391 22.1466 19.3027 22.0092 19.0546 21.7647C18.8066 21.5202 18.6672 21.1885 18.6672 20.8427V8.69287H10.1025V22.9889C10.1025 25.5631 11.0048 28.8111 15.1094 29.8725C19.2141 30.9338 21.603 28.737 21.603 28.737C21.3877 30.1825 19.9796 31.2404 17.7103 31.4662C16.0015 31.638 13.8005 31.0888 12.7034 30.6373V38.2082C15.4993 39.0447 18.4559 39.219 21.333 38.717C26.5723 37.7331 29.8772 33.5012 29.8772 27.8677V8.69287H21.3125Z" fill="#FF00BF"/>
</g>
<defs>
<clipPath id="clip0_1584_42">
<rect width="57" height="39" fill="white"/>
</clipPath>
</defs>
</svg>
